<svg width="20" height="20" viewBox="0 0 20 20" fill="none" xmlns="http://www.w3.org/2000/svg">
<path d="M13.335 11.25C13.335 11.9403 13.8945 12.5 14.585 12.5C15.2753 12.5 15.835 11.9403 15.835 11.25C15.835 10.5597 15.2753 10 14.585 10C13.8945 10 13.335 10.5597 13.335 11.25Z" stroke="#FFFFFF" stroke-width="1.5"/>
<path d="M1.66821 9.16667C1.66821 6.02397 1.66821 4.45262 2.64453 3.47631C3.62084 2.5 5.19219 2.5 8.33492 2.5H11.6683C12.4432 2.5 12.8307 2.5 13.1486 2.58518C14.0113 2.81635 14.6852 3.49022 14.9163 4.35295C15.0016 4.67087 15.0016 5.05836 15.0016 5.83333M8.33492 5.83333H13.3349C15.6919 5.83333 16.8704 5.83333 17.6027 6.56557C18.3349 7.2978 18.3349 8.47633 18.3349 10.8333V12.5C18.3349 14.857 18.3349 16.0355 17.6027 16.7677C16.8704 17.5 15.6919 17.5 13.3349 17.5H10.417" stroke="#FFFFFF" stroke-width="1.5" stroke-linecap="round"/>
<path d="M8.33341 14.1667H5.00008M5.00008 14.1667H1.66675M5.00008 14.1667V17.5M5.00008 14.1667V10.8333" stroke="#FFFFFF" stroke-width="1.5" stroke-linecap="round"/>
</svg>
