<svg width="20" height="20" viewBox="0 0 20 20" fill="none" xmlns="http://www.w3.org/2000/svg">
<g clip-path="url(#clip0_5087_290)">
<path d="M13.3333 11.6667C13.3333 12.357 13.8929 12.9167 14.5833 12.9167C15.2736 12.9167 15.8333 12.357 15.8333 11.6667C15.8333 10.9763 15.2736 10.4167 14.5833 10.4167C13.8929 10.4167 13.3333 10.9763 13.3333 11.6667Z" stroke="#1D1D1D" stroke-width="1.5"/>
<path d="M15.75 6.66666C15.8047 6.3974 15.8333 6.11871 15.8333 5.83332C15.8333 3.53214 13.9678 1.66666 11.6667 1.66666C9.3655 1.66666 7.5 3.53214 7.5 5.83332C7.5 6.11871 7.52869 6.3974 7.58335 6.66666" stroke="#1D1D1D" stroke-width="1.5"/>
<path d="M5.83341 6.66104H13.3334C15.6904 6.66104 16.8689 6.66104 17.6012 7.39363C18.3334 8.12622 18.3334 9.30526 18.3334 11.6634V13.3309C18.3334 15.6891 18.3334 16.8682 17.6012 17.6008C16.8689 18.3333 15.6904 18.3333 13.3334 18.3333H8.33341C5.19071 18.3333 3.61937 18.3333 2.64306 17.3566C1.66675 16.3798 1.66675 14.8077 1.66675 11.6634V9.99601C1.66675 6.85177 1.66675 5.27966 2.64306 4.30288C3.42896 3.51659 4.60044 3.36325 6.66675 3.33334H8.33341" stroke="#1D1D1D" stroke-width="1.5" stroke-linecap="round"/>
</g>
<defs>
<clipPath id="clip0_5087_290">
<rect width="20" height="20" fill="white"/>
</clipPath>
</defs>
</svg>
