<svg width="18" height="18" viewBox="0 0 18 18" fill="none" xmlns="http://www.w3.org/2000/svg">
<path d="M6 10.125H12M6 6.375H9" stroke="#1D1D1D" stroke-width="1.5" stroke-linecap="round" stroke-linejoin="round"/>
<path d="M4.57411 14.25C3.59903 14.1541 2.86856 13.8612 2.37868 13.3713C1.5 12.4927 1.5 11.0784 1.5 8.25V7.875C1.5 5.04657 1.5 3.63236 2.37868 2.75368C3.25736 1.875 4.67157 1.875 7.5 1.875H10.5C13.3284 1.875 14.7427 1.875 15.6213 2.75368C16.5 3.63236 16.5 5.04657 16.5 7.875V8.25C16.5 11.0784 16.5 12.4927 15.6213 13.3713C14.7427 14.25 13.3284 14.25 10.5 14.25C10.0796 14.2594 9.74482 14.2913 9.41595 14.3663C8.51715 14.5732 7.68487 15.0331 6.8624 15.4342C5.69047 16.0056 5.1045 16.2914 4.73677 16.0238C4.03327 15.4999 4.72091 13.8764 4.875 13.125" stroke="#1D1D1D" stroke-width="1.5" stroke-linecap="round"/>
</svg>
