<svg width="20" height="20" viewBox="0 0 20 20" fill="none" xmlns="http://www.w3.org/2000/svg">
<path d="M3.33325 15.5382V6.71187C3.33325 4.33353 3.33325 3.14436 4.06549 2.40551C4.79772 1.66666 5.97623 1.66666 8.33325 1.66666H11.6666C14.0236 1.66666 15.2021 1.66666 15.9343 2.40551C16.6666 3.14436 16.6666 4.33353 16.6666 6.71187V15.5382C16.6666 16.7979 16.6666 17.4277 16.2816 17.6757C15.6525 18.0809 14.68 17.2312 14.1908 16.9227C13.7867 16.6678 13.5847 16.5404 13.3603 16.5331C13.118 16.5251 12.9123 16.6473 12.4757 16.9227L10.8833 17.927C10.4537 18.1978 10.2389 18.3333 9.99992 18.3333C9.76092 18.3333 9.54617 18.1978 9.11658 17.927L7.52419 16.9227C7.12004 16.6678 6.91797 16.5404 6.69369 16.5331C6.45135 16.5251 6.24569 16.6473 5.80898 16.9227C5.31988 17.2312 4.34731 18.0809 3.71821 17.6757C3.33325 17.4277 3.33325 16.7979 3.33325 15.5382Z" stroke="#1D1D1D" stroke-width="1.5" stroke-linecap="round" stroke-linejoin="round"/>
<path d="M9.16675 9.16666H6.66675" stroke="#1D1D1D" stroke-width="1.5" stroke-linecap="round" stroke-linejoin="round"/>
<path d="M11.6667 5.83334H6.66675" stroke="#1D1D1D" stroke-width="1.5" stroke-linecap="round" stroke-linejoin="round"/>
</svg>
