<svg width="20" height="20" viewBox="0 0 20 20" fill="none" xmlns="http://www.w3.org/2000/svg">
<path d="M10 2.5C9.00544 3.49456 8.4467 4.84348 8.4467 6.25C8.4467 7.65652 9.00544 9.00544 10 10C10.9946 10.9946 12.3435 11.5533 13.75 11.5533C15.1565 11.5533 16.5054 10.9946 17.5 10C17.5 11.4834 17.0601 12.9334 16.236 14.1668C15.4119 15.4001 14.2406 16.3614 12.8701 16.9291C11.4997 17.4968 9.99168 17.6453 8.53683 17.3559C7.08197 17.0665 5.7456 16.3522 4.6967 15.3033C3.64781 14.2544 2.9335 12.918 2.64411 11.4632C2.35472 10.0083 2.50325 8.50032 3.07091 7.12987C3.63856 5.75943 4.59986 4.58809 5.83323 3.76398C7.0666 2.93987 8.51664 2.5 10 2.5Z" stroke="#6B7280" stroke-width="1.5" stroke-linecap="round" stroke-linejoin="round"/>
</svg>
