<svg width="20" height="20" viewBox="0 0 20 20" fill="none" xmlns="http://www.w3.org/2000/svg">
<path d="M8.75 6.66666H15.4167M8.75 9.99999H10.8333M15.4167 9.99999H13.3333M8.75 13.3333H10.8333M15.4167 13.3333H13.3333" stroke="#1D1D1D" stroke-width="1.5" stroke-linecap="round" stroke-linejoin="round"/>
<path d="M5.83341 6.25H5.00008C3.42873 6.25 2.64306 6.25 2.15491 6.73816C1.66675 7.22631 1.66675 8.01198 1.66675 9.58333V15C1.66675 16.1506 2.59949 17.0833 3.75008 17.0833C4.90067 17.0833 5.83341 16.1506 5.83341 15V6.25Z" stroke="#1D1D1D" stroke-width="1.5" stroke-linecap="round" stroke-linejoin="round"/>
<path d="M13.3333 2.91666H9.16667C8.39167 2.91666 8.0042 2.91666 7.68628 3.00184C6.82356 3.23301 6.14968 3.90688 5.91852 4.76961C5.83333 5.08752 5.83333 5.47501 5.83333 6.24999V15C5.83333 16.1506 4.90059 17.0833 3.75 17.0833H13.3333C15.6903 17.0833 16.8688 17.0833 17.6011 16.3511C18.3333 15.6188 18.3333 14.4403 18.3333 12.0833V7.91666C18.3333 5.55963 18.3333 4.38112 17.6011 3.64889C16.8688 2.91666 15.6903 2.91666 13.3333 2.91666Z" stroke="#1D1D1D" stroke-width="1.5" stroke-linecap="round" stroke-linejoin="round"/>
</svg>
