<svg width="20" height="20" viewBox="0 0 20 20" fill="none" xmlns="http://www.w3.org/2000/svg">
<path d="M5 6.66666C5 5.34057 5.52678 4.0688 6.46447 3.13112C7.40215 2.19344 8.67392 1.66666 10 1.66666C11.3261 1.66666 12.5979 2.19344 13.5355 3.13112C14.4732 4.0688 15 5.34057 15 6.66666C15 12.5 17.5 14.1667 17.5 14.1667H2.5C2.5 14.1667 5 12.5 5 6.66666Z" stroke="#1D1D1D" stroke-width="1.5" stroke-linecap="round" stroke-linejoin="round"/>
<path d="M8.58325 17.5C8.72274 17.7537 8.92779 17.9653 9.17699 18.1127C9.4262 18.26 9.7104 18.3378 9.99992 18.3378C10.2894 18.3378 10.5736 18.26 10.8228 18.1127C11.072 17.9653 11.2771 17.7537 11.4166 17.5" stroke="#1D1D1D" stroke-width="1.5" stroke-linecap="round" stroke-linejoin="round"/>
</svg>
