<svg width="20" height="20" viewBox="0 0 20 20" fill="none" xmlns="http://www.w3.org/2000/svg">
<path d="M12.5001 1.66666H7.50008C7.03984 1.66666 6.66675 2.03975 6.66675 2.49999V4.16666C6.66675 4.62689 7.03984 4.99999 7.50008 4.99999H12.5001C12.9603 4.99999 13.3334 4.62689 13.3334 4.16666V2.49999C13.3334 2.03975 12.9603 1.66666 12.5001 1.66666Z" stroke="#1D1D1D" stroke-width="1.5" stroke-linecap="round" stroke-linejoin="round"/>
<path d="M13.3333 3.33334H14.9999C15.4419 3.33334 15.8659 3.50894 16.1784 3.8215C16.491 4.13406 16.6666 4.55798 16.6666 5.00001V16.6667C16.6666 17.1087 16.491 17.5326 16.1784 17.8452C15.8659 18.1577 15.4419 18.3333 14.9999 18.3333H4.99992C4.55789 18.3333 4.13397 18.1577 3.82141 17.8452C3.50885 17.5326 3.33325 17.1087 3.33325 16.6667V5.00001C3.33325 4.55798 3.50885 4.13406 3.82141 3.8215C4.13397 3.50894 4.55789 3.33334 4.99992 3.33334H6.66659" stroke="#1D1D1D" stroke-width="1.5" stroke-linecap="round" stroke-linejoin="round"/>
<path d="M10 9H13.3333" stroke="#1D1D1D" stroke-width="1.5" stroke-linecap="round" stroke-linejoin="round"/>
<path d="M10 13.3333H13.3333" stroke="#1D1D1D" stroke-width="1.5" stroke-linecap="round" stroke-linejoin="round"/>
<path d="M6.66675 9.16666H6.67508" stroke="#1D1D1D" stroke-width="1.5" stroke-linecap="round" stroke-linejoin="round"/>
<path d="M6.66675 13.3333H6.67508" stroke="#1D1D1D" stroke-width="1.5" stroke-linecap="round" stroke-linejoin="round"/>
</svg>
