<svg width="19" height="18" viewBox="0 0 19 18" fill="none" xmlns="http://www.w3.org/2000/svg">
<path d="M9.11012 2.62423C9.14184 2.54685 9.19586 2.48066 9.26531 2.43407C9.33476 2.38749 9.4165 2.36261 9.50012 2.36261C9.58375 2.36261 9.66549 2.38749 9.73493 2.43407C9.80438 2.48066 9.8584 2.54685 9.89012 2.62423L11.4839 6.45748C11.5137 6.5292 11.5627 6.59131 11.6256 6.63696C11.6885 6.68261 11.7627 6.71004 11.8401 6.71623L15.9786 7.04773C16.3529 7.07773 16.5044 7.54498 16.2194 7.78873L13.0664 10.4902C13.0075 10.5406 12.9636 10.6063 12.9395 10.6799C12.9154 10.7536 12.9121 10.8325 12.9299 10.908L13.8936 14.9467C13.913 15.0278 13.9079 15.1127 13.879 15.1909C13.8502 15.269 13.7988 15.3368 13.7313 15.3858C13.6639 15.4347 13.5835 15.4626 13.5003 15.4659C13.417 15.4692 13.3347 15.4477 13.2636 15.4042L9.71987 13.2405C9.6537 13.2001 9.57766 13.1787 9.50012 13.1787C9.42258 13.1787 9.34654 13.2001 9.28037 13.2405L5.73662 15.405C5.66557 15.4485 5.58321 15.4699 5.49997 15.4667C5.41672 15.4634 5.33631 15.4355 5.2689 15.3865C5.20149 15.3376 5.15009 15.2697 5.12121 15.1916C5.09233 15.1135 5.08725 15.0285 5.10662 14.9475L6.07037 10.908C6.08825 10.8325 6.08496 10.7536 6.06088 10.6799C6.0368 10.6062 5.99285 10.5406 5.93387 10.4902L2.78087 7.78873C2.71738 7.7346 2.67138 7.66285 2.64869 7.58257C2.62601 7.50228 2.62766 7.41706 2.65344 7.33771C2.67922 7.25837 2.72797 7.18845 2.79351 7.13683C2.85905 7.08521 2.93844 7.0542 3.02162 7.04773L7.16012 6.71623C7.23756 6.71004 7.31179 6.68261 7.37464 6.63696C7.4375 6.59131 7.48654 6.5292 7.51637 6.45748L9.11012 2.62423Z" stroke="#006EFF" stroke-width="1.5" stroke-linecap="round" stroke-linejoin="round"/>
</svg>
